<svg width="13" height="12" viewBox="0 0 13 12" fill="none" xmlns="http://www.w3.org/2000/svg">
<path fill-rule="evenodd" clip-rule="evenodd" d="M11.5 11V6.99779C11.5 6.72287 11.7219 6.5 12 6.5C12.2761 6.5 12.5 6.72242 12.5 6.99779V11.5022C12.5 11.7771 12.2781 12 12 12C11.9999 12 11.9999 12 11.9998 12C11.9998 12 11.9997 12 11.9997 12H1.00035C1.00029 12 1.00023 12 1.00017 12C1.00012 12 1.00006 12 1 12C0.861987 12 0.737033 11.9441 0.64656 11.8537C0.555956 11.7639 0.5 11.639 0.5 11.5C0.5 11.4999 0.5 11.4999 0.5 11.4998C0.5 11.4998 0.5 11.4997 0.5 11.4997V0.500347C0.5 0.500289 0.5 0.500232 0.5 0.500174C0.5 0.500116 0.5 0.500058 0.5 0.5C0.5 0.223858 0.722418 0 0.997789 0L5.50221 0C5.77713 0 6 0.221932 6 0.5C6 0.776142 5.77758 1 5.50221 1H1.5V11H11.5ZM11.5 1.70711L5.06889 8.13822C4.87315 8.33396 4.55754 8.33571 4.36091 8.13909C4.16565 7.94383 4.16626 7.62664 4.36178 7.43111L10.7929 1H8.99852C8.72319 1 8.5 0.778068 8.5 0.5C8.5 0.223858 8.72363 0 8.99852 0H12.0015C12.1389 0 12.2633 0.0552858 12.3535 0.145243C12.4442 0.236889 12.5 0.361318 12.5 0.498515V3.50148C12.5 3.77681 12.2781 4 12 4C11.7239 4 11.5 3.77637 11.5 3.50148V1.70711Z" fill="#EE3A55"/>
</svg>
