<svg width="196" height="120" viewBox="0 0 196 120" fill="none" xmlns="http://www.w3.org/2000/svg">
<path d="M194.345 85.4496C194.026 84.9129 192.649 85.4876 192.396 85.0005C192.144 84.5152 193.423 83.7757 194.154 82.0864C194.286 81.7818 195.117 79.8621 194.502 79.2697C193.336 78.1469 188.003 82.7805 186.136 81.2641C185.727 80.9314 185.44 80.2671 184.201 79.1885C183.707 78.7594 183.409 78.5657 183.121 78.6378C182.711 78.74 182.679 79.2882 182.239 80.3659C181.581 81.9822 181.191 81.8846 180.808 83.1741C180.523 84.1313 180.588 84.6879 180.253 84.7963C179.778 84.9497 179.342 83.9344 178.74 84.0253C178.127 84.1181 177.756 85.3003 177.639 86.1854C177.419 87.8465 178.029 88.9425 178.367 90.095C178.735 91.3475 178.953 93.2523 178.104 95.9488L169.706 119.611C171.56 114.755 176.929 101.446 179.184 96.4995C179.836 95.0717 180.555 93.6234 182.031 93.0518C183.452 92.5015 185.405 92.8301 187.893 92.2305C188.184 92.1605 188.991 91.9553 189.092 91.4809C189.176 91.0887 188.702 90.8697 188.774 90.5024C188.872 90.0097 189.805 90.0036 190.952 89.4352C191.76 89.0343 192.264 88.5576 192.697 88.1476C192.827 88.024 194.768 86.164 194.345 85.4496Z" fill="#F2F2F2"/>
<path d="M161.304 97.9066C160.948 97.908 160.833 98.7496 160.521 98.7333C160.21 98.7171 160.216 97.8758 159.598 97.0297C159.486 96.8771 158.784 95.9155 158.316 96.0464C157.428 96.2945 158.164 100.249 156.881 100.728C156.599 100.833 156.191 100.782 155.304 101.079C154.951 101.197 154.77 101.288 154.722 101.45C154.654 101.681 154.913 101.855 155.316 102.381C155.919 103.171 155.759 103.334 156.281 103.894C156.668 104.31 156.96 104.439 156.917 104.635C156.855 104.912 156.231 104.833 156.102 105.154C155.971 105.482 156.444 106.005 156.845 106.318C157.596 106.905 158.31 106.922 158.974 107.089C159.694 107.27 160.692 107.712 161.771 108.907L170.961 119.856C169.113 117.545 164.129 111.07 162.353 108.536C161.84 107.804 161.336 107.033 161.482 106.144C161.622 105.287 162.346 104.424 162.77 103.03C162.82 102.867 162.952 102.412 162.748 102.225C162.58 102.071 162.336 102.24 162.176 102.098C161.963 101.908 162.229 101.449 162.281 100.722C162.317 100.209 162.229 99.8247 162.152 99.4938C162.129 99.3941 161.776 97.9048 161.304 97.9066Z" fill="#F2F2F2"/>
<path d="M168.391 99.4971L168.177 97.5864L168.275 97.4416C168.727 96.7718 168.958 96.1177 168.96 95.4968C168.961 95.3981 168.956 95.2994 168.952 95.1988C168.933 94.8003 168.91 94.3049 169.169 93.7273C169.313 93.4054 169.72 92.6599 170.332 92.7522C170.497 92.7753 170.621 92.8509 170.716 92.9395C170.73 92.9173 170.744 92.8952 170.759 92.8712C170.95 92.5806 171.1 92.456 171.246 92.3361C171.357 92.2438 171.473 92.1488 171.653 91.9237C171.733 91.825 171.795 91.7383 171.847 91.6654C172.005 91.4449 172.212 91.182 172.576 91.1866C172.965 91.205 173.169 91.527 173.304 91.7401C173.546 92.1202 173.655 92.3942 173.727 92.576C173.754 92.6424 173.784 92.7171 173.799 92.7402C173.924 92.9247 174.944 92.7522 175.329 92.6894C176.192 92.5455 176.938 92.421 177.246 92.9653C177.467 93.3546 177.303 93.8694 176.745 94.5364C176.571 94.744 176.386 94.9018 176.222 95.0254C176.358 95.1066 176.479 95.2311 176.529 95.4267C176.645 95.8898 176.247 96.3539 175.346 96.8078C175.122 96.9213 174.821 97.0726 174.399 97.1455C174.2 97.1796 174.021 97.1879 173.868 97.1925C173.865 97.2811 173.844 97.377 173.79 97.4758C173.632 97.7664 173.303 97.9047 172.806 97.8715C172.26 97.8429 171.81 97.7387 171.414 97.6473C171.067 97.568 170.769 97.5007 170.534 97.5163C170.1 97.5514 169.765 97.8992 169.372 98.3503L168.391 99.4971Z" fill="#F2F2F2"/>
<path d="M169.384 88.1215L167.59 88.8132L167.425 88.7553C166.662 88.4875 165.971 88.4303 165.37 88.5851C165.274 88.6097 165.18 88.6392 165.084 88.6692C164.703 88.7881 164.229 88.9361 163.605 88.8327C163.257 88.7743 162.433 88.5698 162.367 87.9548C162.347 87.7896 162.389 87.6499 162.451 87.536C162.426 87.5282 162.401 87.52 162.374 87.5114C162.044 87.4008 161.886 87.2865 161.733 87.1764C161.615 87.0918 161.494 87.0043 161.23 86.8865C161.115 86.8348 161.015 86.797 160.931 86.7651C160.678 86.668 160.371 86.5348 160.283 86.1811C160.202 85.7998 160.462 85.521 160.634 85.3362C160.94 85.0064 161.178 84.8311 161.335 84.715C161.393 84.6727 161.457 84.6247 161.476 84.6042C161.623 84.436 161.197 83.4932 161.039 83.1374C160.681 82.3391 160.371 81.6483 160.819 81.2126C161.14 80.9006 161.679 80.9284 162.466 81.2991C162.711 81.4147 162.911 81.5536 163.072 81.6811C163.116 81.5289 163.205 81.3795 163.382 81.2821C163.801 81.0522 164.351 81.3196 165.018 82.0759C165.185 82.2635 165.407 82.5165 165.585 82.9063C165.668 83.0899 165.722 83.2609 165.765 83.4079C165.852 83.3886 165.95 83.3843 166.059 83.4115C166.38 83.4908 166.597 83.7743 166.691 84.2628C166.802 84.7984 166.815 85.2599 166.828 85.6668C166.839 86.022 166.849 86.3278 166.924 86.5504C167.068 86.9619 167.489 87.1976 168.026 87.4633L169.384 88.1215Z" fill="#F2F2F2"/>
<path d="M168.391 82.4927L168.177 80.5821L168.275 80.4372C168.727 79.7674 168.958 79.1133 168.96 78.4924C168.961 78.3937 168.956 78.295 168.952 78.1944C168.933 77.7959 168.91 77.3005 169.169 76.7229C169.313 76.401 169.72 75.6555 170.332 75.7478C170.497 75.7709 170.621 75.8465 170.716 75.9351C170.73 75.9129 170.744 75.8908 170.759 75.8668C170.95 75.5762 171.1 75.4516 171.246 75.3317C171.357 75.2395 171.473 75.1444 171.653 74.9193C171.733 74.8206 171.795 74.7339 171.847 74.661C172.005 74.4405 172.212 74.1776 172.576 74.1822C172.965 74.2006 173.169 74.5226 173.304 74.7357C173.546 75.1158 173.655 75.3898 173.727 75.5716C173.754 75.638 173.784 75.7127 173.799 75.7358C173.924 75.9203 174.944 75.7478 175.329 75.685C176.192 75.5411 176.938 75.4166 177.246 75.9609C177.467 76.3502 177.303 76.865 176.745 77.532C176.571 77.7396 176.386 77.8974 176.222 78.021C176.358 78.1022 176.479 78.2267 176.529 78.4223C176.645 78.8854 176.247 79.3495 175.346 79.8034C175.122 79.9169 174.821 80.0682 174.399 80.1411C174.2 80.1752 174.021 80.1835 173.868 80.1881C173.865 80.2767 173.844 80.3726 173.79 80.4714C173.632 80.762 173.303 80.9003 172.806 80.8671C172.26 80.8385 171.81 80.7343 171.414 80.6429C171.067 80.5636 170.769 80.4963 170.534 80.5119C170.1 80.547 169.765 80.8948 169.372 81.3459L168.391 82.4927Z" fill="#F2F2F2"/>
<path d="M170.346 119.58L169.945 119.329L169.478 119.382C169.471 119.339 169.446 119.239 169.407 119.083C169.198 118.229 168.561 115.629 168.03 111.535C167.659 108.677 167.449 105.738 167.406 102.8C167.363 99.8571 167.502 97.6291 167.613 95.8384C167.698 94.4878 167.8 93.2017 167.901 91.9488C168.168 88.6017 168.421 85.4401 168.233 81.9399C168.191 81.1585 168.104 79.532 167.154 77.8012C166.603 76.7975 165.844 75.9063 164.897 75.1535L165.486 74.4136C166.53 75.2457 167.37 76.2329 167.983 77.3474C169.036 79.2663 169.131 81.0386 169.177 81.8901C169.368 85.4521 169.113 88.6442 168.842 92.0236C168.743 93.2718 168.64 94.5524 168.556 95.8975C168.446 97.6716 168.308 99.8802 168.351 102.785C168.393 105.689 168.601 108.591 168.966 111.413C169.491 115.456 170.119 118.017 170.325 118.858C170.435 119.308 170.458 119.402 170.346 119.58Z" fill="#F2F2F2"/>
<path d="M163.164 76.6545C163.125 76.6545 163.086 76.6536 163.047 76.6508C162.242 76.6075 161.497 76.1259 160.832 75.2199C160.52 74.7937 160.361 74.3075 160.042 73.3379C159.993 73.1884 159.753 72.4301 159.607 71.3866C159.512 70.7048 159.524 70.4198 159.659 70.1679C159.809 69.8875 160.051 69.6919 160.325 69.5599C160.313 69.4695 160.322 69.3764 160.361 69.2813C160.522 68.8874 160.95 68.9391 161.182 68.964C161.299 68.9787 161.445 68.9981 161.603 68.9898C161.851 68.9778 161.985 68.904 162.187 68.7933C162.38 68.6872 162.62 68.5553 162.977 68.4824C163.68 68.3357 164.269 68.535 164.463 68.6005C165.485 68.9409 165.989 69.7352 166.572 70.655C166.688 70.8395 167.087 71.5112 167.35 72.4319C167.54 73.0961 167.514 73.3914 167.456 73.6109C167.34 74.0621 167.066 74.3204 166.369 74.8905C165.641 75.4874 165.275 75.7864 164.962 75.9681C164.232 76.3897 163.773 76.6545 163.164 76.6545Z" fill="#F2F2F2"/>
<path d="M11.3067 104.679C5.62825 102.065 0.967355 96.5504 0.834961 90.3008C6.21361 94.4579 12.8893 96.5786 19.681 96.2875C22.2999 96.1658 25.2 95.7577 27.303 97.3232C28.6116 98.2972 29.3419 99.8949 29.6044 101.505C29.8668 103.115 29.713 104.76 29.5585 106.384L29.7108 106.762C23.4969 107.444 16.9852 107.293 11.3067 104.679Z" fill="#F0F0F0"/>
<path d="M0.964599 90.2807C3.60035 94.7332 7.57202 98.242 12.3155 100.309C13.3288 100.772 14.4087 101.072 15.5155 101.199C16.5977 101.288 17.6838 101.085 18.6611 100.612C19.5813 100.189 20.4735 99.65 21.4803 99.4582C21.9972 99.3677 22.5273 99.3874 23.036 99.5162C23.5447 99.6449 24.0204 99.8797 24.432 100.205C25.4785 100.99 26.1809 102.103 26.8299 103.216C27.5505 104.452 28.2794 105.747 29.4963 106.561C29.6438 106.66 29.482 106.883 29.3348 106.784C27.2174 105.367 26.6121 102.682 24.8545 100.935C24.0344 100.12 22.9637 99.5468 21.779 99.6904C20.743 99.8159 19.8224 100.371 18.8945 100.807C17.9479 101.283 16.8992 101.519 15.8401 101.496C14.7304 101.426 13.6407 101.168 12.6177 100.732C10.2989 99.788 8.14291 98.4853 6.22876 96.8716C4.03394 95.0421 2.16827 92.8506 0.712456 90.3919C0.622412 90.2397 0.875144 90.1295 0.964599 90.2807Z" fill="white"/>
<path d="M10.7492 99.7332C10.2944 100.482 9.58825 101.045 8.75686 101.321C7.92546 101.597 7.02296 101.569 6.21052 101.241C6.04636 101.174 6.14259 100.916 6.30697 100.983C7.06295 101.289 7.90364 101.316 8.67731 101.057C9.45098 100.798 10.1067 100.271 10.526 99.5716C10.6173 99.4196 10.84 99.5821 10.7492 99.7332Z" fill="white"/>
<path d="M18.2229 100.887C17.8136 99.1439 16.7621 97.6188 15.2782 96.6162C15.1312 96.5169 15.2929 96.2939 15.4398 96.393C16.982 97.4393 18.073 99.0286 18.495 100.844C18.5351 101.017 18.2628 101.059 18.2229 100.887Z" fill="white"/>
<path d="M4.35988 94.8775C4.59622 94.6245 4.76601 94.3167 4.854 93.9818C4.94199 93.6469 4.94542 93.2954 4.86399 92.9589C4.82172 92.7864 5.09403 92.744 5.13603 92.9153C5.22427 93.2875 5.22 93.6757 5.12361 94.0459C5.02721 94.4161 4.84162 94.7571 4.58305 95.0391C4.56091 95.0677 4.5287 95.0868 4.49297 95.0925C4.45724 95.0982 4.42067 95.0901 4.39069 95.0699C4.36125 95.0483 4.3415 95.016 4.33573 94.98C4.32996 94.944 4.33864 94.9072 4.35988 94.8775Z" fill="white"/>
<path d="M16.8559 76.4697C16.8854 76.5767 16.9148 76.6836 16.9465 76.7913C17.35 78.2269 17.8695 79.6273 18.4998 80.9787C18.5469 81.084 18.5962 81.1899 18.6462 81.2936C20.1995 84.5333 22.3407 87.4564 24.9611 89.9145C26.0047 90.8916 27.1212 91.7879 28.3008 92.5957C29.9299 93.7111 31.7851 94.791 32.9172 96.334C33.0372 96.4937 33.1471 96.6606 33.2464 96.8339L30.1601 106.547C30.142 106.566 30.1261 106.585 30.1079 106.604L30.0025 106.997C29.9387 106.96 29.8734 106.919 29.8096 106.882C29.7726 106.86 29.7362 106.837 29.6991 106.815C29.6746 106.8 29.6502 106.785 29.6272 106.773C29.619 106.768 29.6109 106.763 29.6049 106.758C29.582 106.746 29.5619 106.733 29.5412 106.721C29.1755 106.498 28.8107 106.271 28.4469 106.042C28.4447 106.041 28.4447 106.041 28.4431 106.038C25.6754 104.283 23.03 102.281 20.7725 99.941C20.7046 99.8705 20.6344 99.7995 20.5679 99.7247C19.5562 98.6644 18.6328 97.5231 17.807 96.3124C17.3569 95.648 16.9408 94.9612 16.5602 94.2547C15.5803 92.4273 14.8939 90.4572 14.5262 88.4165C13.7938 84.3484 14.3706 80.0912 16.6772 76.7252C16.7362 76.6391 16.7946 76.5551 16.8559 76.4697Z" fill="#F0F0F0"/>
<path d="M16.9721 76.5309C16.3959 81.6729 17.4545 86.8657 19.9976 91.3718C20.5278 92.3516 21.2092 93.2416 22.0166 94.0092C22.8273 94.7316 23.8166 95.2236 24.8818 95.4343C25.871 95.6506 26.9079 95.7574 27.8273 96.2105C28.2945 96.4494 28.7059 96.7844 29.0345 97.1934C29.3632 97.6025 29.6016 98.0764 29.7343 98.584C30.0977 99.8404 29.988 101.152 29.8362 102.432C29.6675 103.852 29.4699 105.325 29.9511 106.708C30.0095 106.876 29.746 106.956 29.6878 106.789C28.8505 104.383 29.9836 101.874 29.6323 99.4212C29.4683 98.2766 28.9584 97.1744 27.926 96.5757C27.0232 96.0521 25.954 95.9411 24.9505 95.7307C23.9084 95.5404 22.9288 95.0979 22.0971 94.4417C21.2532 93.7177 20.5387 92.8553 19.9841 91.8916C18.701 89.7418 17.7639 87.4037 17.2071 84.9628C16.5562 82.1806 16.386 79.3075 16.7039 76.4679C16.7236 76.2921 16.9918 76.3563 16.9721 76.5309Z" fill="white"/>
<path d="M19.0933 89.9688C18.2794 90.2929 17.3768 90.317 16.5467 90.037C15.7166 89.757 15.013 89.191 14.5617 88.4401C14.4709 88.2879 14.7032 88.1396 14.7941 88.2921C15.2131 88.992 15.8685 89.5192 16.642 89.7784C17.4156 90.0376 18.2563 90.0117 19.0124 89.7055C19.1768 89.6391 19.2568 89.9028 19.0933 89.9688Z" fill="white"/>
<path d="M16.9155 82.2454C17.2565 82.1857 17.5774 82.0422 17.8493 81.8278C18.1212 81.6133 18.3355 81.3348 18.4731 81.017C18.5432 80.8539 18.7862 80.9839 18.7166 81.146C18.5629 81.4964 18.3258 81.8037 18.0259 82.0413C17.7261 82.2789 17.3726 82.4394 16.9964 82.5088C16.9615 82.5183 16.9243 82.5142 16.8923 82.4972C16.8603 82.4803 16.836 82.4518 16.8243 82.4176C16.8137 82.3827 16.8174 82.345 16.8345 82.3128C16.8516 82.2805 16.8807 82.2563 16.9155 82.2454Z" fill="white"/>
<path d="M45.4443 41.4288C45.125 41.4609 44.8037 41.4684 44.4833 41.4512C44.4287 41.4452 44.3739 41.4609 44.3308 41.495C44.2876 41.529 44.2596 41.5786 44.2526 41.6331L43.6397 46.2311C43.5925 46.5649 43.4558 46.8796 43.2442 47.142C43.0697 47.3508 42.94 47.5932 42.8631 47.8542C42.7862 48.1152 42.7638 48.3892 42.7973 48.6593V56.4698C42.7973 56.4698 42.7578 57.5112 43.5579 57.5112C44.5156 57.6315 45.4845 57.6315 46.4422 57.5112C46.4422 57.5112 47.0829 57.3899 47.0829 56.4289V48.7384C47.1317 48.47 47.1217 48.1943 47.0534 47.9303C46.9851 47.6662 46.8602 47.4202 46.6874 47.2092C46.4828 46.9459 46.3506 46.6337 46.3038 46.3036L45.6671 41.6094C45.6599 41.5566 45.6328 41.5086 45.5914 41.475C45.55 41.4415 45.4974 41.4249 45.4443 41.4288Z" fill="white"/>
<path d="M44.9974 57.733C44.5134 57.733 44.0299 57.7029 43.5496 57.6429C43.4423 57.6455 43.3356 57.6258 43.2363 57.5851C43.1369 57.5445 43.0471 57.4837 42.9723 57.4066C42.6467 57.0685 42.6648 56.4892 42.6657 56.4647L42.6656 48.6673C42.6317 48.3806 42.6565 48.09 42.7386 47.8132C42.8207 47.5364 42.9584 47.2793 43.1432 47.0575C43.3391 46.814 43.4656 46.5221 43.5093 46.2126L44.1221 41.6156C44.1341 41.5272 44.18 41.4469 44.2501 41.3918C44.3202 41.3366 44.4091 41.3109 44.4978 41.3201C44.8091 41.3365 45.1212 41.329 45.4313 41.2976L45.4349 41.2973C45.5215 41.291 45.6072 41.3179 45.6746 41.3726C45.742 41.4272 45.7861 41.5055 45.7978 41.5914L46.4346 46.2859C46.4784 46.5929 46.6014 46.8833 46.7916 47.1283C46.9749 47.3521 47.1075 47.613 47.1806 47.8929C47.2536 48.1728 47.2653 48.4652 47.2149 48.75V56.4289C47.2149 57.4868 46.4744 57.6393 46.4669 57.6407C45.9795 57.7021 45.4887 57.7329 44.9974 57.733ZM44.4656 41.5822C44.446 41.5813 44.4267 41.5877 44.4115 41.6001C44.3964 41.6126 44.3864 41.6303 44.3836 41.6497L43.7705 46.2485C43.72 46.6062 43.5737 46.9436 43.3469 47.2247C43.1839 47.42 43.0627 47.6466 42.9907 47.8905C42.9187 48.1344 42.8974 48.3905 42.9283 48.643L42.9293 48.6592V56.4697C42.929 56.4794 42.915 56.9679 43.1628 57.2244C43.2141 57.2766 43.2758 57.3174 43.3439 57.3441C43.412 57.3708 43.485 57.3828 43.5581 57.3794L43.5745 57.3804C44.5213 57.4992 45.4792 57.4992 46.4259 57.3804C46.4384 57.3773 46.9512 57.2603 46.9512 56.4289L46.9533 48.7147C46.999 48.4652 46.9897 48.2087 46.9262 47.9632C46.8627 47.7176 46.7465 47.4888 46.5856 47.2927C46.366 47.0106 46.2239 46.676 46.1735 46.3221L45.5366 41.627C45.5338 41.6078 45.524 41.5902 45.5089 41.5779C45.4939 41.5655 45.4748 41.5592 45.4554 41.5602C45.1301 41.5927 44.8028 41.6003 44.4764 41.5828C44.4728 41.5824 44.4692 41.5822 44.4656 41.5822Z" fill="#3F3D56"/>
<path d="M44.4772 48.7993H45.4487C45.835 48.7993 46.2055 48.9528 46.4787 49.226C46.7519 49.4991 46.9053 49.8696 46.9053 50.256V53.9114C46.9053 54.2977 46.7519 54.6682 46.4787 54.9414C46.2055 55.2146 45.835 55.3681 45.4487 55.3681H44.4772C44.0908 55.3681 43.7203 55.2146 43.4471 54.9414C43.174 54.6682 43.0205 54.2977 43.0205 53.9114V50.256C43.0205 50.0647 43.0582 49.8753 43.1314 49.6985C43.2046 49.5218 43.3119 49.3612 43.4471 49.226C43.5824 49.0907 43.743 48.9834 43.9197 48.9102C44.0964 48.837 44.2859 48.7993 44.4772 48.7993Z" fill="#EE3A55"/>
<path d="M26.6158 115.938H29.7832L31.2901 103.721L26.6152 103.721L26.6158 115.938Z" fill="#9F616A"/>
<path d="M25.8081 114.904L32.0459 114.903H32.0462C33.1004 114.903 34.1115 115.322 34.857 116.068C35.6025 116.813 36.0213 117.824 36.0214 118.878V119.008L25.8083 119.008L25.8081 114.904Z" fill="#2F2E41"/>
<path d="M24.6247 72.3008C24.6247 72.3008 23.252 73.8525 25.525 79.9013L25.1246 113.068L32.4909 112.924L34.11 96.7459L37.0581 73.1368L24.6247 72.3008Z" fill="#2F2E41"/>
<path d="M39.5843 76.8864L39.5037 76.8741C30.0802 75.4369 22.9691 74.0591 22.8984 74.0454L22.8101 74.0282L25.2803 68.0199C25.2608 67.3921 24.7261 49.7617 25.7497 44.6963C26.7407 39.7927 31.4117 38.9891 31.944 38.9135L32.4785 37.1426L39.2308 40.6562L40.4085 44.7093L40.6477 55.8179L39.5843 76.8864Z" fill="#3F3D56"/>
<path d="M43.6511 54.0225C43.347 54.0224 43.0462 54.0853 42.7676 54.2071C42.489 54.3289 42.2387 54.5071 42.0323 54.7304H30.6827L26.5254 55.6154L27.208 60.8799L41.9966 57.6994C42.2415 57.9759 42.5517 58.1867 42.899 58.3125C43.2462 58.4383 43.6194 58.4751 43.9846 58.4196C44.3497 58.364 44.6951 58.2179 44.9893 57.9945C45.2834 57.7712 45.5169 57.4777 45.6685 57.1409C45.82 56.8041 45.8848 56.4346 45.8568 56.0664C45.8289 55.6981 45.7092 55.3427 45.5086 55.0326C45.3079 54.7225 45.0329 54.4676 44.7084 54.2911C44.3839 54.1147 44.0204 54.0223 43.6511 54.0225Z" fill="#9F616A"/>
<path d="M43.7497 35.1524C45.1987 32.5016 44.2245 29.1781 41.5738 27.7291C38.9231 26.2801 35.5996 27.2543 34.1505 29.905C32.7015 32.5557 33.6757 35.8793 36.3264 37.3283C38.9772 38.7773 42.3007 37.8031 43.7497 35.1524Z" fill="#9F616A"/>
<path d="M33.8051 28.1556L33.54 27.6219L34.8743 26.9589C34.8743 26.9589 36.3462 24.5639 39.0098 25.2369C41.6733 25.91 42.8717 26.3128 42.8717 26.3128L44.2026 26.9825L43.5346 27.6471L44.733 28.0499L43.9324 28.4477L44.8639 28.9831L44.3625 31.7278C44.3625 31.7278 43.5296 29.6461 41.9284 30.4416C40.3273 31.2371 37.3985 30.0303 37.3985 30.0303L34.8541 34.9546C34.8541 34.9546 34.3292 33.2284 33.3933 33.6887C33.3933 33.6887 31.0023 29.8809 33.8051 28.1556Z" fill="#2F2E41"/>
<path d="M27.2808 61.8672L25.9829 58.0064L25.6689 45.1367L26.222 43.3107C26.421 42.6535 26.7507 42.0433 27.1913 41.5166C27.6318 40.9898 28.1742 40.5574 28.7858 40.2453C29.3975 39.9333 30.0659 39.7478 30.7509 39.7003C31.436 39.6527 32.1235 39.7439 32.7725 39.9684C33.4214 40.1929 34.0184 40.5461 34.5275 41.0069C35.0367 41.4676 35.4476 42.0264 35.7356 42.6498C36.0236 43.2731 36.1829 43.9482 36.2037 44.6346C36.2246 45.321 36.1066 46.0045 35.857 46.6442L32.8929 54.2399L33.0435 54.5323L39.4653 54.4803L41.7465 58.5863L27.2808 61.8672Z" fill="#3F3D56"/>
<path d="M91.5318 60.2804C91.7715 60.119 91.9728 59.907 92.1217 59.6594C92.2706 59.4117 92.3633 59.1344 92.3934 58.847C92.4235 58.5597 92.3903 58.2692 92.296 57.996C92.2017 57.7229 92.0486 57.4738 91.8476 57.2662L95.013 50.9961L91.3874 51.4166L88.9373 57.3064C88.6109 57.6672 88.4283 58.1351 88.4239 58.6216C88.4195 59.1081 88.5938 59.5792 88.9136 59.9458C89.2334 60.3124 89.6766 60.549 90.1591 60.6106C90.6417 60.6723 91.1301 60.5548 91.5318 60.2804Z" fill="#FFB7B7"/>
<path d="M116.918 104.695L114.065 104.694L112.708 93.6909L116.918 93.6913L116.918 104.695Z" fill="#FFB7B7"/>
<path d="M117.646 107.46L108.447 107.459V107.343C108.447 106.393 108.825 105.483 109.496 104.811C110.167 104.14 111.078 103.763 112.028 103.763H112.028L117.646 103.763L117.646 107.46Z" fill="#2F2E41"/>
<path d="M101.328 104.695L98.4753 104.694L97.1182 93.6909L101.329 93.6913L101.328 104.695Z" fill="#FFB7B7"/>
<path d="M101.357 107.46L92.1587 107.459V107.343C92.1588 106.393 92.536 105.483 93.2074 104.811C93.8788 104.14 94.7895 103.763 95.739 103.763H95.7392L101.357 103.763L101.357 107.46Z" fill="#2F2E41"/>
<path d="M101.094 58.2207L98.3019 64.6535L95.9985 101.628L101.816 101.396L103.405 83.7695L108.306 68.0707L111.123 85.5723L112.287 100.93L117.1 101.138L119.019 58.2207H101.094Z" fill="#2F2E41"/>
<path d="M115.052 26.4785L106.959 26.681L102.208 29.1201L101.947 47.1159L98.9834 59.5404C98.9834 59.5404 117.499 60.8147 120.058 58.9532L117.033 44.7591L121.091 29.4193L115.052 26.4785Z" fill="#EE3A55"/>
<path d="M103.457 29.4185L102.704 28.9097C102.704 28.9097 99.5826 29.8452 98.6601 34.0071C98.6601 34.0071 97.9541 36.0951 97.6444 37.5307C97.2891 39.1773 89.4438 54.3022 89.4438 54.3022L94.1409 55.6497L102.752 41.7235L103.457 29.4185Z" fill="#EE3A55"/>
<path d="M120.964 62.5884C120.778 62.3672 120.643 62.1079 120.568 61.8288C120.493 61.5497 120.48 61.2576 120.531 60.973C120.581 60.6885 120.693 60.4184 120.859 60.1819C121.025 59.9454 121.241 59.7481 121.491 59.604L120.178 52.7041L123.547 54.1081L124.278 60.4451C124.492 60.8819 124.539 61.3821 124.409 61.8509C124.279 62.3197 123.981 62.7246 123.573 62.9888C123.164 63.253 122.673 63.3581 122.192 63.2843C121.711 63.2106 121.274 62.9629 120.964 62.5884Z" fill="#FFB7B7"/>
<path d="M119.873 29.6339L120.737 29.3525C120.737 29.3525 123.48 31.1125 123.219 35.3674C123.219 35.3674 123.321 37.5692 123.223 39.0345C123.111 40.7152 124.619 57.4171 124.619 57.4171H119.733L117.639 42.2922L119.873 29.6339Z" fill="#EE3A55"/>
<path d="M117.039 18.9285C117.039 20.0381 116.71 21.1228 116.093 22.0454C115.477 22.968 114.601 23.6871 113.575 24.1117C112.55 24.5363 111.422 24.6474 110.334 24.4309C109.246 24.2145 108.246 23.6801 107.462 22.8955C106.677 22.111 106.143 21.1113 105.926 20.023C105.71 18.9348 105.821 17.8068 106.245 16.7816C106.67 15.7565 107.389 14.8803 108.312 14.2639C109.234 13.6474 110.319 13.3184 111.429 13.3184C112.913 13.3147 114.338 13.9007 115.39 14.9476C116.442 15.9945 117.035 17.4164 117.039 18.9006C117.039 18.9099 117.039 18.9192 117.039 18.9285Z" fill="#FFB7B7"/>
<path d="M105.837 11.3929C106.494 9.97972 107.766 10.2591 108.878 10.7382C110.287 10.4257 111.626 9.49033 113.144 10.0435C114.639 12.2178 119.658 11.5781 118.59 15.1178C118.589 15.966 120.186 15.4723 119.907 16.8615C120.754 19.5349 116.853 24.598 114.614 23.5318C115.167 22.5168 116.433 20.2114 114.514 19.9827C110.386 23.8234 114.088 12.6692 108.901 15.913C107.184 17.4846 104.833 12.9649 105.837 11.3929Z" fill="#2F2E41"/>
<path d="M121.946 63.1474C122.213 63.2011 122.489 63.1956 122.754 63.1312C123.019 63.0668 123.266 62.9452 123.479 62.7748C123.692 62.6044 123.865 62.3895 123.985 62.1451C124.106 61.9007 124.172 61.6328 124.178 61.3603L138.264 48.1016L135.095 45.5732L122.221 59.4347C121.762 59.455 121.327 59.6428 120.998 59.9625C120.669 60.2821 120.468 60.7115 120.434 61.1691C120.4 61.6267 120.536 62.0809 120.814 62.4455C121.093 62.8101 121.496 63.0598 121.946 63.1474Z" fill="#9F616A"/>
<path d="M136.268 50.2446L133.528 47.0329C133.45 46.9415 133.392 46.8344 133.359 46.7188C133.327 46.6033 133.319 46.482 133.337 46.3632C133.356 46.2445 133.399 46.1311 133.465 46.0308C133.531 45.9304 133.618 45.8455 133.72 45.7817L137.288 43.5482C137.758 43.1518 138.365 42.9579 138.978 43.009C139.591 43.0601 140.158 43.3521 140.555 43.8208C140.953 44.2896 141.149 44.8969 141.099 45.5096C141.05 46.1222 140.759 46.6903 140.291 47.0891L137.534 50.2515C137.455 50.3421 137.358 50.4145 137.248 50.4639C137.139 50.5133 137.02 50.5386 136.9 50.5379C136.779 50.5373 136.661 50.5107 136.552 50.4601C136.443 50.4095 136.346 50.336 136.268 50.2446Z" fill="#CBCBCB"/>
<path d="M128.898 115.67L125.454 115.67L123.815 102.385L128.899 102.385L128.898 115.67Z" fill="#9F616A"/>
<path d="M129.777 119.008L118.671 119.008V118.867C118.671 117.721 119.127 116.622 119.938 115.811C120.748 115 121.848 114.545 122.994 114.545H122.994L129.777 114.545L129.777 119.008Z" fill="#2F2E41"/>
<path d="M156.43 115.67L152.986 115.67L151.347 102.385L156.431 102.385L156.43 115.67Z" fill="#9F616A"/>
<path d="M157.308 119.008L146.203 119.008V118.867C146.203 117.721 146.658 116.622 147.469 115.811C148.279 115 149.379 114.545 150.525 114.545H150.525L157.308 114.545L157.308 119.008Z" fill="#2F2E41"/>
<path d="M147.165 57.2865L150.637 44.4598L146.133 41.9282H139.847L137.402 44.5442C137.402 44.5442 133.316 47.3865 134.305 50.5356L135.9 57.7085L133.461 69.1006L121.169 86.1467L118.259 102.89L129.713 105.893L142.099 81.5054L148.104 108.509L159.275 107.947L155.426 75.2053C155.426 75.2053 154.328 65.2309 148.576 59.0031L147.165 57.2865Z" fill="#2F2E41"/>
<path d="M154.335 68.6358C154.529 68.444 154.678 68.212 154.772 67.9563C154.866 67.7005 154.903 67.4272 154.881 67.1556C154.858 66.884 154.776 66.6207 154.64 66.3842C154.505 66.1478 154.319 65.9439 154.096 65.787L151.402 47.6143L147.536 48.8351L151.406 66.3374C151.168 66.7292 151.081 67.1951 151.163 67.6466C151.244 68.0982 151.489 68.5041 151.85 68.7874C152.211 69.0707 152.663 69.2117 153.121 69.1838C153.579 69.1559 154.011 68.9609 154.335 68.6358Z" fill="#9F616A"/>
<path d="M152.068 50.4667L147.874 50.9503C147.754 50.964 147.633 50.9519 147.519 50.9148C147.405 50.8776 147.3 50.8162 147.212 50.7348C147.123 50.6535 147.053 50.554 147.007 50.4432C146.961 50.3325 146.938 50.213 146.942 50.0929L147.078 45.8858C147.011 45.2749 147.189 44.6623 147.573 44.1825C147.957 43.7026 148.516 43.3947 149.127 43.326C149.738 43.2574 150.351 43.4338 150.832 43.8165C151.313 44.1992 151.622 44.7569 151.692 45.3675L152.78 49.4199C152.811 49.5359 152.816 49.6573 152.796 49.7757C152.776 49.8942 152.731 50.0069 152.663 50.1062C152.596 50.2056 152.508 50.2892 152.405 50.3514C152.302 50.4136 152.187 50.4529 152.068 50.4667Z" fill="#CBCBCB"/>
<path d="M135.96 38.2811V32.8767C135.96 30.956 136.723 29.114 138.081 27.7559C139.439 26.3978 141.281 25.6348 143.202 25.6348C145.123 25.6348 146.965 26.3978 148.323 27.7559C149.681 29.114 150.444 30.956 150.444 32.8767V38.2811C150.444 38.539 150.341 38.7863 150.159 38.9687C149.976 39.1511 149.729 39.2536 149.471 39.2539H136.933C136.675 39.2536 136.428 39.1511 136.245 38.9687C136.063 38.7863 135.96 38.539 135.96 38.2811Z" fill="#2F2E41"/>
<path d="M144.26 38.477C146.833 37.0705 147.778 33.8444 146.372 31.2714C144.965 28.6984 141.739 27.7527 139.166 29.1593C136.593 30.5658 135.648 33.7919 137.054 36.3649C138.461 38.938 141.687 39.8836 144.26 38.477Z" fill="#9F616A"/>
<path d="M134.247 33.3088C134.248 31.7899 134.852 30.3338 135.926 29.2599C137 28.1859 138.456 27.5818 139.975 27.5801H141.056C142.575 27.5818 144.031 28.1859 145.105 29.2599C146.179 30.3338 146.783 31.79 146.785 33.3088V33.4169H144.501L143.721 31.2352L143.566 33.4169H142.385L141.992 32.3161L141.913 33.4169H134.247V33.3088Z" fill="#2F2E41"/>
<path d="M141.191 39.8614C141.084 39.7162 141.02 39.5437 141.006 39.3636C140.993 39.1836 141.03 39.0035 141.115 38.8439C142.26 36.6652 143.864 32.6396 141.735 30.1569L141.582 29.9785H147.762V39.2568L142.148 40.2474C142.091 40.2574 142.034 40.2625 141.976 40.2626C141.823 40.2625 141.672 40.2262 141.535 40.1565C141.399 40.0867 141.281 39.9856 141.191 39.8614Z" fill="#2F2E41"/>
<path d="M84.3892 44.8023C84.3108 44.8829 84.239 44.9695 84.1742 45.0614L74.1049 44.815L72.9302 42.6685L69.459 44.0179L71.1692 48.02C71.3074 48.3433 71.5467 48.6131 71.8513 48.7888C72.1558 48.9645 72.5091 49.0367 72.8582 48.9946L84.2347 47.6203C84.503 47.96 84.8684 48.21 85.2823 48.337C85.6962 48.4639 86.139 48.4619 86.5517 48.3311C86.9644 48.2003 87.3275 47.947 87.5927 47.6048C87.858 47.2626 88.0127 46.8478 88.0364 46.4155C88.0601 45.9832 87.9517 45.5539 87.7254 45.1848C87.4992 44.8157 87.166 44.5242 86.7701 44.349C86.3741 44.1739 85.9342 44.1235 85.5089 44.2044C85.0836 44.2854 84.6931 44.4939 84.3892 44.8023Z" fill="#FFB7B7"/>
<path d="M51.5645 105.954H54.8754L56.4504 93.1836L51.564 93.1838L51.5645 105.954Z" fill="#FFB7B7"/>
<path d="M50.7197 104.873L57.24 104.873H57.2403C58.3423 104.873 59.3991 105.31 60.1784 106.09C60.9576 106.869 61.3954 107.926 61.3955 109.028V109.163L50.7199 109.163L50.7197 104.873Z" fill="#2F2E41"/>
<path d="M81.6284 105.88L84.673 104.58L81.1048 92.2168L76.6113 94.1366L81.6284 105.88Z" fill="#FFB7B7"/>
<path d="M80.4268 105.218L86.4228 102.656L86.423 102.656C87.4365 102.223 88.5804 102.211 89.6031 102.621C90.6258 103.032 91.4435 103.832 91.8765 104.845L91.9295 104.969L82.1123 109.163L80.4268 105.218Z" fill="#2F2E41"/>
<path d="M67.6578 47.5682L67.8971 51.4479L60.899 52.1969L53.5762 52.9805L55.7314 47.0894L67.6578 47.5682Z" fill="#FFB7B7"/>
<path d="M67.9029 48.9605C67.8235 48.9294 59.919 45.8547 55.0637 48.3688L54.9443 48.4307L53.9758 43.6631L53.4238 33.413L57.0152 31.7161L58.004 29.5011L64.7392 29.1025L66.1233 31.0006L70.8356 32.545L68.0192 49.0066L67.9029 48.9605Z" fill="#E4E4E4"/>
<path d="M68.1509 39.7086L68.9839 33.1628L70.8809 32.5854L70.9128 32.5972C70.9566 32.6133 71.9875 33.0079 72.2697 34.4352C72.5406 35.8051 74.5806 44.3301 74.6012 44.4161L74.6216 44.5014L69.8285 46.4191L68.1509 39.7086Z" fill="#E4E4E4"/>
<path d="M79.1621 103.636L85.5425 102.327L75.3447 74.1879L71.8546 64.59C71.8546 64.59 69.6409 56.8944 68.6408 53.9163L68.0372 49.9204L53.7494 51.5019C53.7494 51.5019 49.7589 57.3624 50.9712 66.9147L50.4229 102.818L56.8033 103.145L62.1476 66.9349L71.5274 86.7851C71.5274 86.7851 74.4838 95.256 76.599 97.092L79.1621 103.636Z" fill="#2F2E41"/>
<path d="M59.4793 52.8341C59.367 52.8315 59.2546 52.8377 59.1432 52.8527L52.4776 45.3013L53.253 42.9805L49.9034 41.3525L48.1315 45.3277C47.9883 45.6489 47.9532 46.0078 48.0314 46.3506C48.1096 46.6934 48.2969 47.0016 48.5651 47.2289L57.3079 54.6368C57.2412 55.0646 57.3063 55.5025 57.4946 55.8923C57.6829 56.2822 57.9855 56.6055 58.362 56.8192C58.7385 57.0329 59.1711 57.1269 59.6024 57.0887C60.0336 57.0506 60.443 56.882 60.7762 56.6055C61.1093 56.3289 61.3503 55.9575 61.4672 55.5407C61.5841 55.1238 61.5713 54.6813 61.4305 54.2718C61.2897 53.8624 61.0276 53.5056 60.6791 53.2488C60.3305 52.9919 59.9121 52.8473 59.4793 52.8341Z" fill="#FFB7B7"/>
<path d="M49.2998 42.4718L51.9056 35.0494C52.1985 34.1744 52.5655 33.6429 52.9964 33.4694C53.0813 33.4312 53.1732 33.4111 53.2663 33.4102C53.3593 33.4093 53.4516 33.4278 53.5372 33.4644L54.7056 34.9406L55.7901 39.4963L53.0096 46.0368L49.2998 42.4718Z" fill="#E4E4E4"/>
<path d="M66.5484 27.5669H55.1087C54.8734 27.5666 54.6478 27.473 54.4814 27.3067C54.3151 27.1403 54.2215 26.9147 54.2212 26.6794V21.7485C54.2212 19.9961 54.9173 18.3155 56.1564 17.0764C57.3956 15.8372 59.0762 15.1411 60.8286 15.1411C62.5809 15.1411 64.2615 15.8372 65.5007 17.0764C66.7398 18.3155 67.4359 19.9961 67.4359 21.7485V26.6793C67.4357 26.9147 67.3421 27.1403 67.1757 27.3067C67.0093 27.473 66.7837 27.5666 66.5484 27.5669Z" fill="#2F2E41"/>
<path d="M62.1856 27.4518C64.861 27.4518 67.0299 25.2829 67.0299 22.6075C67.0299 19.932 64.861 17.7632 62.1856 17.7632C59.5102 17.7632 57.3413 19.932 57.3413 22.6075C57.3413 25.2829 59.5102 27.4518 62.1856 27.4518Z" fill="#FFB7B7"/>
<path d="M68.9987 22.2409H62.0037L61.9319 21.2366L61.5733 22.2409H60.4962L60.354 20.2504L59.6432 22.2409H57.5591V22.1422C57.5606 20.7565 58.1118 19.428 59.0917 18.4481C60.0715 17.4683 61.4 16.9171 62.7858 16.9155H63.772C65.1577 16.9171 66.4862 17.4683 67.4661 18.4481C68.446 19.428 68.9971 20.7565 68.9987 22.1422L68.9987 22.2409Z" fill="#2F2E41"/>
<path d="M61.9466 28.4869C61.894 28.4869 61.8414 28.4822 61.7896 28.473L56.6675 27.5693V19.104H62.3059L62.1663 19.2668C60.2241 21.5319 61.6873 25.2048 62.7324 27.1926C62.8094 27.3381 62.8438 27.5025 62.8315 27.6668C62.8192 27.831 62.7608 27.9885 62.6629 28.1209C62.581 28.2343 62.4733 28.3265 62.3488 28.3901C62.2243 28.4537 62.0865 28.4869 61.9466 28.4869Z" fill="#2F2E41"/>
<path d="M123.303 48.835C122.984 48.8672 122.663 48.8747 122.342 48.8574C122.288 48.8515 122.233 48.8672 122.19 48.9012C122.147 48.9352 122.118 48.9848 122.112 49.0393L121.499 53.6373C121.451 53.9711 121.315 54.2859 121.103 54.5482C120.929 54.757 120.799 54.9994 120.722 55.2604C120.645 55.5215 120.623 55.7955 120.656 56.0655V63.876C120.656 63.876 120.617 64.9174 121.417 64.9174C122.374 65.0378 123.343 65.0378 124.301 64.9174C124.301 64.9174 124.942 64.7961 124.942 63.8352V56.1446C124.991 55.8763 124.981 55.6006 124.912 55.3365C124.844 55.0725 124.719 54.8264 124.546 54.6155C124.342 54.3522 124.209 54.04 124.163 53.7098L123.526 49.0156C123.519 48.9628 123.492 48.9148 123.45 48.8813C123.409 48.8477 123.356 48.8312 123.303 48.835Z" fill="white"/>
<path d="M122.856 65.1392C122.372 65.1393 121.888 65.1092 121.408 65.0492C121.301 65.0517 121.194 65.032 121.095 64.9914C120.995 64.9507 120.905 64.89 120.831 64.8129C120.505 64.4747 120.523 63.8955 120.524 63.871L120.524 56.0735C120.49 55.7868 120.515 55.4962 120.597 55.2194C120.679 54.9426 120.817 54.6855 121.002 54.4637C121.198 54.2202 121.324 53.9283 121.368 53.6189L121.981 49.0219C121.992 48.9335 122.038 48.8532 122.108 48.798C122.179 48.7429 122.267 48.7172 122.356 48.7264C122.667 48.7428 122.98 48.7353 123.29 48.7039L123.293 48.7035C123.38 48.6973 123.466 48.7242 123.533 48.7788C123.6 48.8335 123.644 48.9117 123.656 48.9977L124.293 53.6921C124.337 53.9992 124.46 54.2895 124.65 54.5345C124.833 54.7584 124.966 55.0192 125.039 55.2991C125.112 55.579 125.124 55.8714 125.073 56.1563V63.8351C125.073 64.893 124.333 65.0455 124.325 65.0469C123.838 65.1084 123.347 65.1392 122.856 65.1392ZM122.324 48.9885C122.304 48.9875 122.285 48.9939 122.27 49.0064C122.255 49.0189 122.245 49.0365 122.242 49.0559L121.629 53.6547C121.578 54.0124 121.432 54.3498 121.205 54.631C121.042 54.8262 120.921 55.0528 120.849 55.2968C120.777 55.5407 120.756 55.7968 120.787 56.0493L120.788 56.0655V63.876C120.787 63.8857 120.773 64.3741 121.021 64.6307C121.073 64.6829 121.134 64.7236 121.202 64.7503C121.27 64.777 121.343 64.789 121.416 64.7856L121.433 64.7866C122.38 64.9055 123.338 64.9055 124.284 64.7866C124.297 64.7835 124.81 64.6666 124.81 63.8351L124.812 56.121C124.857 55.8714 124.848 55.615 124.785 55.3694C124.721 55.1239 124.605 54.8951 124.444 54.699C124.224 54.4169 124.082 54.0822 124.032 53.7283L123.395 49.0333C123.392 49.014 123.382 48.9965 123.367 48.9841C123.352 48.9718 123.333 48.9655 123.314 48.9664C122.989 48.9989 122.661 49.0065 122.335 48.9891C122.331 48.9887 122.328 48.9885 122.324 48.9885Z" fill="#3F3D56"/>
<path d="M122.336 56.2051H123.307C123.693 56.2051 124.064 56.3585 124.337 56.6317C124.61 56.9049 124.764 57.2754 124.764 57.6617V61.3172C124.764 61.7035 124.61 62.074 124.337 62.3472C124.064 62.6204 123.693 62.7738 123.307 62.7738H122.336C121.949 62.7738 121.579 62.6204 121.306 62.3472C121.032 62.074 120.879 61.7035 120.879 61.3172V57.6617C120.879 57.2754 121.032 56.9049 121.306 56.6317C121.579 56.3585 121.949 56.2051 122.336 56.2051Z" fill="#EE3A55"/>
<path d="M90.3344 42.502C90.0152 42.5342 89.6939 42.5417 89.3735 42.5244C89.3188 42.5185 89.2641 42.5342 89.2209 42.5682C89.1778 42.6022 89.1497 42.6518 89.1428 42.7063L88.5298 47.3043C88.4826 47.6381 88.346 47.9529 88.1343 48.2152C87.9598 48.424 87.8301 48.6664 87.7532 48.9274C87.6764 49.1884 87.654 49.4625 87.6874 49.7325V57.543C87.6874 57.543 87.6479 58.5844 88.4481 58.5844C89.4057 58.7048 90.3747 58.7048 91.3323 58.5844C91.3323 58.5844 91.973 58.4631 91.973 57.5021V49.8116C92.0219 49.5433 92.0118 49.2675 91.9435 49.0035C91.8752 48.7395 91.7504 48.4934 91.5775 48.2825C91.373 48.0191 91.2407 47.707 91.1939 47.3768L90.5572 42.6826C90.55 42.6298 90.5229 42.5818 90.4816 42.5482C90.4402 42.5147 90.3876 42.4982 90.3344 42.502Z" fill="white"/>
<path d="M89.8871 58.8062C89.4031 58.8063 88.9195 58.7762 88.4392 58.7162C88.3319 58.7187 88.2252 58.699 88.1259 58.6584C88.0266 58.6177 87.9367 58.5569 87.862 58.4799C87.5363 58.1417 87.5545 57.5625 87.5554 57.538L87.5553 49.7405C87.5213 49.4538 87.5461 49.1632 87.6282 48.8864C87.7103 48.6096 87.848 48.3525 88.0328 48.1307C88.2288 47.8872 88.3553 47.5953 88.3989 47.2859L89.0118 42.6889C89.0237 42.6005 89.0696 42.5202 89.1397 42.465C89.2099 42.4098 89.2987 42.3842 89.3875 42.3934C89.6987 42.4098 90.0108 42.4023 90.3209 42.3708L90.3246 42.3705C90.4112 42.3642 90.4968 42.3912 90.5642 42.4458C90.6317 42.5004 90.6757 42.5787 90.6875 42.6647L91.3243 47.3591C91.368 47.6662 91.4911 47.9565 91.6813 48.2015C91.8645 48.4254 91.9972 48.6862 92.0702 48.9661C92.1433 49.246 92.155 49.5384 92.1045 49.8233V57.5021C92.1045 58.56 91.364 58.7125 91.3565 58.7139C90.8691 58.7754 90.3783 58.8062 89.8871 58.8062ZM89.3552 42.6555C89.3356 42.6545 89.3164 42.6609 89.3012 42.6734C89.286 42.6859 89.2761 42.7035 89.2732 42.7229L88.6601 47.3217C88.6097 47.6794 88.4633 48.0168 88.2366 48.298C88.0736 48.4932 87.9524 48.7198 87.8804 48.9637C87.8083 49.2077 87.7871 49.4638 87.8179 49.7162L87.8189 49.7325V57.543C87.8187 57.5527 87.8047 58.0411 88.0525 58.2977C88.1038 58.3499 88.1655 58.3906 88.2336 58.4173C88.3017 58.444 88.3747 58.456 88.4477 58.4526L88.4642 58.4536C89.4109 58.5725 90.3688 58.5725 91.3156 58.4536C91.3281 58.4505 91.8409 58.3336 91.8409 57.5021L91.843 49.7879C91.8886 49.5384 91.8794 49.282 91.8159 49.0364C91.7524 48.7908 91.6361 48.5621 91.4752 48.366C91.2556 48.0838 91.1136 47.7492 91.0631 47.3953L90.4263 42.7003C90.4235 42.681 90.4136 42.6635 90.3986 42.6511C90.3835 42.6388 90.3645 42.6324 90.345 42.6334C90.0198 42.6659 89.6925 42.6735 89.3661 42.6561C89.3625 42.6557 89.3588 42.6555 89.3552 42.6555Z" fill="#3F3D56"/>
<path d="M89.3668 49.8721H90.3383C90.7247 49.8721 91.0952 50.0255 91.3683 50.2987C91.6415 50.5719 91.795 50.9424 91.795 51.3287V54.9842C91.795 55.3705 91.6415 55.741 91.3683 56.0142C91.0952 56.2873 90.7247 56.4408 90.3383 56.4408H89.3668C88.9805 56.4408 88.61 56.2873 88.3368 56.0142C88.0636 55.741 87.9102 55.3705 87.9102 54.9842V51.3287C87.9102 50.9424 88.0636 50.5719 88.3368 50.2987C88.61 50.0255 88.9805 49.8721 89.3668 49.8721Z" fill="#EE3A55"/>
<path d="M84.7461 35.7964C84.4268 35.8286 84.1055 35.8361 83.7851 35.8189C83.7305 35.8129 83.6757 35.8286 83.6325 35.8626C83.5894 35.8967 83.5613 35.9463 83.5544 36.0008L82.9414 40.5988C82.8943 40.9325 82.7576 41.2473 82.5459 41.5097C82.3714 41.7184 82.2417 41.9609 82.1649 42.2219C82.088 42.4829 82.0656 42.7569 82.0991 43.0269V50.8374C82.0991 50.8374 82.0595 51.8789 82.8597 51.8789C83.8173 51.9992 84.7863 51.9992 85.744 51.8789C85.744 51.8789 86.3846 51.7576 86.3846 50.7966V43.106C86.4335 42.8377 86.4234 42.562 86.3551 42.2979C86.2869 42.0339 86.162 41.7879 85.9892 41.5769C85.7846 41.3136 85.6524 41.0014 85.6056 40.6713L84.9688 35.977C84.9616 35.9243 84.9346 35.8762 84.8932 35.8427C84.8518 35.8091 84.7992 35.7926 84.7461 35.7964Z" fill="white"/>
<path d="M84.2992 52.1007C83.8152 52.1007 83.3316 52.0706 82.8513 52.0106C82.744 52.0132 82.6374 51.9935 82.538 51.9528C82.4387 51.9121 82.3488 51.8514 82.2741 51.7743C81.9484 51.4361 81.9666 50.8569 81.9675 50.8324L81.9674 43.0349C81.9334 42.7482 81.9582 42.4576 82.0404 42.1808C82.1225 41.9041 82.2601 41.6469 82.4449 41.4251C82.6409 41.1817 82.7674 40.8898 82.811 40.5803L83.4239 35.9833C83.4358 35.8949 83.4817 35.8146 83.5519 35.7594C83.622 35.7043 83.7108 35.6786 83.7996 35.6878C84.1108 35.7042 84.4229 35.6967 84.733 35.6653L84.7367 35.665C84.8233 35.6587 84.9089 35.6856 84.9764 35.7402C85.0438 35.7949 85.0878 35.8731 85.0996 35.9591L85.7364 40.6536C85.7801 40.9606 85.9032 41.251 86.0934 41.4959C86.2766 41.7198 86.4093 41.9806 86.4823 42.2606C86.5554 42.5405 86.5671 42.8329 86.5166 43.1177V50.7965C86.5166 51.8545 85.7761 52.007 85.7686 52.0084C85.2812 52.0698 84.7904 52.1006 84.2992 52.1007ZM83.7673 35.9499C83.7477 35.949 83.7285 35.9554 83.7133 35.9678C83.6982 35.9803 83.6882 35.9979 83.6853 36.0174L83.0722 40.6162C83.0218 40.9739 82.8754 41.3112 82.6487 41.5924C82.4857 41.7877 82.3645 42.0142 82.2925 42.2582C82.2205 42.5021 82.1992 42.7582 82.23 43.0107L82.231 43.0269V50.8374C82.2308 50.8471 82.2168 51.3355 82.4646 51.5921C82.5159 51.6443 82.5776 51.6851 82.6457 51.7118C82.7138 51.7384 82.7868 51.7505 82.8599 51.747L82.8763 51.7481C83.823 51.8669 84.7809 51.8669 85.7277 51.7481C85.7402 51.745 86.253 51.628 86.253 50.7965L86.2551 43.0824C86.3007 42.8329 86.2915 42.5764 86.228 42.3308C86.1645 42.0853 86.0482 41.8565 85.8873 41.6604C85.6677 41.3783 85.5257 41.0437 85.4752 40.6897L84.8384 35.9947C84.8356 35.9754 84.8257 35.9579 84.8107 35.9456C84.7957 35.9332 84.7766 35.9269 84.7571 35.9278C84.4319 35.9604 84.1046 35.9679 83.7782 35.9505C83.7746 35.9501 83.7709 35.9499 83.7673 35.9499Z" fill="#3F3D56"/>
<path d="M83.7789 43.1665H84.7504C85.1368 43.1665 85.5073 43.32 85.7804 43.5931C86.0536 43.8663 86.2071 44.2368 86.2071 44.6231V48.2786C86.2071 48.6649 86.0536 49.0354 85.7804 49.3086C85.5073 49.5818 85.1368 49.7352 84.7504 49.7352H83.7789C83.3926 49.7352 83.0221 49.5818 82.7489 49.3086C82.4757 49.0354 82.3223 48.6649 82.3223 48.2786V44.6231C82.3223 44.2368 82.4757 43.8663 82.7489 43.5931C83.0221 43.32 83.3926 43.1665 83.7789 43.1665Z" fill="#EE3A55"/>
<path d="M33.2758 13.2248C35.8475 13.2248 37.9324 11.14 37.9324 8.56823C37.9324 5.99646 35.8475 3.91162 33.2758 3.91162C30.704 3.91162 28.6191 5.99646 28.6191 8.56823C28.6191 11.14 30.704 13.2248 33.2758 13.2248Z" fill="#F0F0F0"/>
<path d="M140.564 9.31322C143.136 9.31322 145.22 7.22839 145.22 4.65661C145.22 2.08484 143.136 0 140.564 0C137.992 0 135.907 2.08484 135.907 4.65661C135.907 7.22839 137.992 9.31322 140.564 9.31322Z" fill="#F0F0F0"/>
<path d="M87.2922 21.0478C89.1439 21.0478 90.645 19.5467 90.645 17.695C90.645 15.8434 89.1439 14.3423 87.2922 14.3423C85.4405 14.3423 83.9395 15.8434 83.9395 17.695C83.9395 19.5467 85.4405 21.0478 87.2922 21.0478Z" fill="#F0F0F0"/>
</svg>
